<svg xmlns="http://www.w3.org/2000/svg" width="23.192" height="18.038" viewBox="0 0 23.192 18.038">
  <g id="credit-card" transform="translate(-31 -81)">
    <path id="Caminho_37" data-name="Caminho 37" d="M31,97.106a1.933,1.933,0,0,0,1.933,1.933H52.259a1.933,1.933,0,0,0,1.933-1.933V90.019H31Zm7.731-2.737a.484.484,0,0,1,.484-.484h5.473a.484.484,0,0,1,.484.484v1.608a.484.484,0,0,1-.484.484H39.215a.484.484,0,0,1-.484-.484Zm-5.154,0a.484.484,0,0,1,.484-.484h2.9a.484.484,0,0,1,.484.484v1.608a.484.484,0,0,1-.484.484h-2.9a.484.484,0,0,1-.484-.484ZM54.192,82.933v1.933H31V82.933A1.933,1.933,0,0,1,32.933,81H52.259A1.933,1.933,0,0,1,54.192,82.933Z" fill="#f58220"/>
  </g>
</svg>
