<svg xmlns="http://www.w3.org/2000/svg" width="55.049" height="14.727" viewBox="0 0 55.049 14.727">
  <g id="g18" transform="translate(-80.954 -275.663)">
    <path id="path4" d="M273.743,357.838" transform="translate(-172.773 -73.644)" fill="none"/>
    <path id="path6" d="M307.655,301.31c-2.59,0-3.568.634-4.2,2.482a.13.13,0,0,0,.091.163l1.866.525a.112.112,0,0,0,.145-.091,1.121,1.121,0,0,1,1.014-.906h1.993a.668.668,0,0,1,.706.6v1.214h-3.134a3.112,3.112,0,0,0-3.079,3.188c0,1.793,1,3.17,4.384,3.17,3.043,0,4.148-1.177,4.148-2.79v-4.456C311.6,303.447,311.115,301.31,307.655,301.31Zm1.594,7.608c0,.217-.127.616-.8.616h-2.21a1.025,1.025,0,0,1-.906-1.069.951.951,0,0,1,1-1.069h2.935S309.249,308.7,309.249,308.918Z" transform="translate(-199.041 -22.984)" fill="#2c2a7a"/>
    <path id="path8" d="M532.92,311.478c2.59,0,3.569-.634,4.2-2.482a.13.13,0,0,0-.091-.163l-1.866-.525a.112.112,0,0,0-.145.091,1.121,1.121,0,0,1-1.014.906h-1.993a.668.668,0,0,1-.706-.6v-1.214h3.134a3.112,3.112,0,0,0,3.079-3.188c0-1.793-1-3.17-4.384-3.17-3.043,0-4.148,1.177-4.148,2.79v4.456C528.971,309.341,529.46,311.478,532.92,311.478Zm-1.757-7.535c0-.217.127-.6.761-.6h2.228c.6,0,.87.38.87.942s-.109,1.032-.96,1.032h-2.9Z" transform="translate(-401.518 -22.828)" fill="#2c2a7a"/>
    <path id="path10" d="M406.019,306.9c1.63,0,2.989-2.3,3.261-2.771a.185.185,0,0,1,.145-.091h0a.162.162,0,0,1,.163.163v7.119a.181.181,0,0,0,.181.181h1.993a.181.181,0,0,0,.181-.181v-8.332a1.844,1.844,0,0,0-1.848-1.848h0a2.5,2.5,0,0,0-2.137,1.177c-.6.761-1.594,2.409-1.956,2.409-.344,0-1.359-1.667-1.956-2.409a2.451,2.451,0,0,0-2.137-1.177h0a1.844,1.844,0,0,0-1.848,1.848v8.332a.181.181,0,0,0,.181.181h1.993a.181.181,0,0,0,.181-.181V304.2a.162.162,0,0,1,.163-.163h0a.185.185,0,0,1,.145.091C403.012,304.613,404.389,306.9,406.019,306.9Z" transform="translate(-285.975 -22.828)" fill="#2c2a7a"/>
    <g id="g16" transform="translate(80.954 275.663)">
      <path id="path12" d="M90.953,290.389h0a1.878,1.878,0,0,0,1.34-.562l8.133-8.133a1.784,1.784,0,0,0,.525-1.25v-.091a1.711,1.711,0,0,0-.525-1.25l-3.134-3.079a1.22,1.22,0,0,0-.869-.362H85.483a1.22,1.22,0,0,0-.869.362L81.479,279.1a1.711,1.711,0,0,0-.525,1.25v.091a1.711,1.711,0,0,0,.525,1.25l8.133,8.133A1.847,1.847,0,0,0,90.953,290.389Z" transform="translate(-80.954 -275.663)" fill="#ed3a68"/>
      <path id="path14" d="M123.35,275.663v.018a1.405,1.405,0,0,1,.96.362l3.677,3.315a1.06,1.06,0,0,0,.725.272h.435a1.154,1.154,0,0,0,.725-.272l3.677-3.315a1.473,1.473,0,0,1,.96-.362v-.018H123.35Z" transform="translate(-118.949 -275.663)" fill="#2c2a7a"/>
    </g>
  </g>
</svg>
