<svg xmlns="http://www.w3.org/2000/svg" width="57.292" height="18.481" viewBox="0 0 57.292 18.481">
  <path id="path2" d="M37.07,14.924h2.68V7.115H37.07ZM40.674,1.8h-1.8V3.6h1.8ZM30.556,2.68H27.968V4.944h2.4c1.525,0,2.4.739,2.4,2.125s-.878,2.172-2.4,2.172h-2.4V4.99h-2.68v9.934h2.68V11.5H30.51c3.1,0,4.9-1.663,4.9-4.528C35.407,4.3,33.651,2.68,30.556,2.68ZM42.476,0H37.07V5.406h5.406ZM41.6,4.482h-3.6V.878h3.6Zm15.709-1.8H54.859V4.944h2.31c1.525,0,2.4.739,2.4,2.125s-.878,2.172-2.4,2.172h-2.31V4.99h-2.68v9.934h2.68V11.5h2.449c3.1,0,4.9-1.663,4.9-4.528,0-2.68-1.8-4.3-4.9-4.3Zm22.5,2.865L77.5,11.366l-2.31-5.822H72.416l3.7,9.379L74.68,18.481H77.5L82.581,5.544ZM67.8,5.5a8.921,8.921,0,0,0-4.251,1.063l.832,1.848A5.766,5.766,0,0,1,67.2,7.577c1.294,0,1.941.554,1.941,1.571v.185H66.548c-2.31,0-3.558,1.063-3.558,2.818,0,1.71,1.2,2.911,3.234,2.911a3.824,3.824,0,0,0,2.957-1.247v1.016h2.634v-6.1C71.723,6.746,70.291,5.5,67.8,5.5Zm1.571,6.284A2.225,2.225,0,0,1,67.2,13.214c-.924,0-1.479-.462-1.479-1.2s.508-1.063,1.525-1.063h2.125ZM46.588,12.891a2.283,2.283,0,0,1-2.218-2.541,2.267,2.267,0,0,1,2.218-2.495,2.566,2.566,0,0,1,2.125,1.016l1.8-1.294A4.692,4.692,0,0,0,46.45,5.591a4.486,4.486,0,0,0-4.759,4.759,4.511,4.511,0,0,0,4.759,4.759,4.6,4.6,0,0,0,4.158-2.079L48.76,11.782a2.392,2.392,0,0,1-2.172,1.109Z" transform="translate(-25.289)" fill="#21c25e"/>
</svg>
