<svg xmlns="http://www.w3.org/2000/svg" width="60.201" height="21.401" viewBox="0 0 60.201 21.401">
  <g id="pix-106_2_" data-name="pix-106 (2)" transform="translate(0.023 0.001)">
    <path id="Path_38" data-name="Path 38" d="M390.288,70.918a.2.2,0,0,1-.2-.2V58.446a4.286,4.286,0,0,1,4.286-4.286h0l3.624.005a4.287,4.287,0,0,1,4.272,4.281v2.612a4.292,4.292,0,0,1-4.286,4.287h-5.122a.2.2,0,0,1,0-.4h5.121a3.9,3.9,0,0,0,3.891-3.891V58.446A3.891,3.891,0,0,0,398,54.561l-3.623-.005a3.891,3.891,0,0,0-3.89,3.891V70.72A.2.2,0,0,1,390.288,70.918Z" transform="translate(-365.465 -50.739)" fill="#939598"/>
    <path id="Path_39" data-name="Path 39" d="M596.118,65.391a.2.2,0,0,1-.2-.2V56.026a1.482,1.482,0,0,0-1.48-1.48h-1.572a.2.2,0,0,1,0-.4h1.572a1.878,1.878,0,0,1,1.876,1.876v9.168A.2.2,0,0,1,596.118,65.391Z" transform="translate(-555.246 -50.73)" fill="#939598"/>
    <path id="Caminho_40" data-name="Caminho 40" d="M629.366,2.2l-.713-.713a.452.452,0,0,1,0-.64l.713-.713a.454.454,0,0,1,.641,0l.712.713a.452.452,0,0,1,0,.64L630,2.2a.453.453,0,0,1-.641,0" transform="translate(-588.831 0)" fill="#32bcad"/>
    <path id="Path_41" data-name="Path 41" d="M700.266,59.3a1.4,1.4,0,0,1-1-.413l-3.646-3.646a2.8,2.8,0,0,0-2-.827h-1.559a.2.2,0,0,1,0-.4h1.56a3.2,3.2,0,0,1,2.276.942l3.646,3.646a1.011,1.011,0,0,0,1.431,0l3.633-3.632a3.191,3.191,0,0,1,2.277-.942h1.267a.2.2,0,0,1,0,.4H706.89a2.8,2.8,0,0,0-2,.827l-3.633,3.632A1.4,1.4,0,0,1,700.266,59.3Z" transform="translate(-648.178 -50.608)" fill="#939598"/>
    <path id="Path_42" data-name="Path 42" d="M693.628,152.519h-1.56a.2.2,0,0,1,0-.4h1.559a2.805,2.805,0,0,0,2-.827l3.646-3.646a1.41,1.41,0,0,1,1.99,0l3.633,3.633a2.8,2.8,0,0,0,2,.827h1.267a.2.2,0,1,1,0,.4H706.89a3.2,3.2,0,0,1-2.276-.942l-3.633-3.633a1.014,1.014,0,0,0-1.431,0l-3.646,3.646A3.2,3.2,0,0,1,693.628,152.519Z" transform="translate(-648.178 -137.938)" fill="#939598"/>
    <path id="Caminho_43" data-name="Caminho 43" d="M75.507,205.131a2.911,2.911,0,0,1-2.071-.855l-2.992-2.994a.569.569,0,0,0-.786,0l-3,3a2.912,2.912,0,0,1-2.071.857H64l3.791,3.791a3.033,3.033,0,0,0,4.284,0l3.8-3.8Z" transform="translate(-59.978 -188.418)" fill="#32bcad"/>
    <path id="Caminho_44" data-name="Caminho 44" d="M64.586,27.768a2.911,2.911,0,0,1,2.071.857l3,3a.557.557,0,0,0,.786,0l2.991-2.991a2.906,2.906,0,0,1,2.071-.858h.36l-3.8-3.8a3.029,3.029,0,0,0-4.284,0L64,27.768Z" transform="translate(-59.978 -21.634)" fill="#32bcad"/>
    <path id="Caminho_45" data-name="Caminho 45" d="M19.032,112.815l-2.3-2.3a.442.442,0,0,1-.163.033H15.529a2.061,2.061,0,0,0-1.449.6l-2.991,2.989a1.437,1.437,0,0,1-2.03,0l-3-3a2.061,2.061,0,0,0-1.449-.6H3.327a.45.45,0,0,1-.154-.031l-2.31,2.305a3.033,3.033,0,0,0,0,4.284l2.3,2.3a.433.433,0,0,1,.154-.031H4.609a2.062,2.062,0,0,0,1.449-.6l3-3a1.471,1.471,0,0,1,2.031,0l2.991,2.99a2.061,2.061,0,0,0,1.449.6h1.044a.436.436,0,0,1,.163.033l2.3-2.3a3.029,3.029,0,0,0,0-4.284" transform="translate(0 -103.529)" fill="#32bcad"/>
    <path id="Caminho_46" data-name="Caminho 46" d="M432.338,297.93a2.662,2.662,0,0,0-.562.085v.748a1.3,1.3,0,0,0,.437.073c.375,0,.553-.126.553-.457,0-.311-.145-.45-.428-.45m-.688,1.39v-1.48h.1l.011.063a2.961,2.961,0,0,1,.585-.094.579.579,0,0,1,.384.111.572.572,0,0,1,.169.459.52.52,0,0,1-.24.476.922.922,0,0,1-.435.1,1.568,1.568,0,0,1-.45-.069v.435Z" transform="translate(-404.399 -278.993)" fill="#939598"/>
    <path id="Caminho_47" data-name="Caminho 47" d="M456.317,297.966c-.375,0-.542.118-.542.448s.165.463.542.463.54-.116.54-.446-.165-.465-.54-.465m.483.911a.819.819,0,0,1-.483.116.829.829,0,0,1-.484-.116.515.515,0,0,1-.193-.454.522.522,0,0,1,.193-.457,1.068,1.068,0,0,1,.967,0,.52.52,0,0,1,.193.454.527.527,0,0,1-.193.457" transform="translate(-426.873 -279.032)" fill="#939598"/>
    <path id="Caminho_48" data-name="Caminho 48" d="M481.4,299.4l-.418-.9h-.008l-.412.9h-.116L480,298.32h.139l.371.909h.009l.4-.909h.116l.413.909h.009l.362-.909h.137l-.446,1.082Z" transform="translate(-449.694 -279.473)" fill="#939598"/>
    <path id="Caminho_49" data-name="Caminho 49" d="M514.5,297.943c-.348,0-.465.155-.487.379h.973c-.011-.246-.137-.379-.486-.379m0,1.029a.657.657,0,0,1-.451-.12.562.562,0,0,1-.169-.45.553.553,0,0,1,.2-.463.719.719,0,0,1,.422-.109.758.758,0,0,1,.433.1.55.55,0,0,1,.186.5h-1.109c0,.223.077.42.5.42a3.273,3.273,0,0,0,.559-.063v.114a3.3,3.3,0,0,1-.569.066" transform="translate(-481.434 -279.012)" fill="#939598"/>
    <path id="Caminho_50" data-name="Caminho 50" d="M539.3,298.943v-1.082h.1l.011.063a1.9,1.9,0,0,1,.538-.094h.015v.12h-.03a1.776,1.776,0,0,0-.51.085v.907Z" transform="translate(-505.248 -279.014)" fill="#939598"/>
    <path id="Caminho_51" data-name="Caminho 51" d="M552.224,297.943c-.347,0-.465.155-.487.379h.973c-.011-.246-.137-.379-.487-.379m0,1.029a.655.655,0,0,1-.45-.12.562.562,0,0,1-.169-.45.554.554,0,0,1,.2-.463.722.722,0,0,1,.422-.109.758.758,0,0,1,.433.1.55.55,0,0,1,.19.5h-1.113c0,.223.077.42.5.42a3.277,3.277,0,0,0,.56-.063v.114a3.314,3.314,0,0,1-.569.066" transform="translate(-516.77 -279.012)" fill="#939598"/>
    <path id="Caminho_52" data-name="Caminho 52" d="M576.515,291.715a1.3,1.3,0,0,0-.437-.073c-.375,0-.553.126-.553.457,0,.313.146.45.428.45a2.788,2.788,0,0,0,.562-.084Zm.024.924-.011-.063a2.913,2.913,0,0,1-.585.095.494.494,0,0,1-.553-.57.506.506,0,0,1,.24-.474.907.907,0,0,1,.437-.1,1.654,1.654,0,0,1,.448.068v-.5h.126v1.538Z" transform="translate(-539.057 -272.709)" fill="#939598"/>
    <path id="Caminho_53" data-name="Caminho 53" d="M614.348,291.647a2.66,2.66,0,0,0-.562.085v.746a1.264,1.264,0,0,0,.437.075c.375,0,.553-.126.553-.457,0-.311-.145-.45-.428-.45m.324.926a.921.921,0,0,1-.435.1,1.539,1.539,0,0,1-.485-.082l-.006.051h-.086V291.1h.126v.516a3.054,3.054,0,0,1,.572-.09.579.579,0,0,1,.384.111.572.572,0,0,1,.169.459.52.52,0,0,1-.24.476" transform="translate(-574.909 -272.709)" fill="#939598"/>
    <path id="Caminho_54" data-name="Caminho 54" d="M635.708,299.788v-.118c.063.006.12.011.16.011a.327.327,0,0,0,.339-.223l.041-.086-.569-1.082h.147l.484.934h.008l.461-.934h.144l-.609,1.216a.441.441,0,0,1-.452.293,1.236,1.236,0,0,1-.156-.011" transform="translate(-595.538 -279.445)" fill="#939598"/>
    <path id="Caminho_55" data-name="Caminho 55" d="M671.889,293.07h-.42v.379h.42c.289,0,.4-.032.4-.19s-.15-.19-.4-.19m-.076-.612h-.342v.385h.345c.285,0,.4-.034.4-.195s-.144-.19-.4-.19m.652,1.13a1.249,1.249,0,0,1-.682.1h-.641V292.22h.626a1.19,1.19,0,0,1,.624.094.31.31,0,0,1,.15.291.32.32,0,0,1-.232.326v.008c.19.043.311.14.311.348a.316.316,0,0,1-.156.3" transform="translate(-628.758 -273.758)" fill="#939598"/>
    <path id="Caminho_56" data-name="Caminho 56" d="M700.308,298.526c-.126-.011-.253-.017-.39-.017-.221,0-.3.045-.3.146s.063.145.234.145a2.182,2.182,0,0,0,.454-.063Zm.063.454-.008-.063a2.594,2.594,0,0,1-.588.095.561.561,0,0,1-.328-.08.335.335,0,0,1,.063-.555,1,1,0,0,1,.406-.058c.113,0,.265.006.392.015v-.02c0-.169-.111-.225-.416-.225-.117,0-.261.006-.4.019v-.219c.152-.013.324-.021.466-.021a.922.922,0,0,1,.505.1.4.4,0,0,1,.148.371v.641Z" transform="translate(-655.165 -279.051)" fill="#939598"/>
    <path id="Caminho_57" data-name="Caminho 57" d="M726.8,298.937v-.6c0-.2-.1-.268-.281-.268a2.061,2.061,0,0,0-.442.068v.8h-.3v-1.083h.246l.011.069a2.5,2.5,0,0,1,.579-.1.534.534,0,0,1,.371.111.421.421,0,0,1,.117.339v.662Z" transform="translate(-679.945 -279.007)" fill="#939598"/>
    <path id="Caminho_58" data-name="Caminho 58" d="M751.744,298.992a.613.613,0,0,1-.4-.114.558.558,0,0,1-.171-.459.528.528,0,0,1,.22-.463.859.859,0,0,1,.476-.107c.126,0,.246.008.379.021v.232c-.109-.011-.24-.019-.345-.019-.287,0-.423.09-.423.339,0,.233.1.334.337.334a2.571,2.571,0,0,0,.454-.056v.222a2.691,2.691,0,0,1-.527.069" transform="translate(-703.731 -279.032)" fill="#939598"/>
    <path id="Caminho_59" data-name="Caminho 59" d="M771.985,298.077c-.287,0-.414.09-.414.337s.126.351.414.351.409-.088.409-.334-.122-.354-.409-.354m.519.8a.912.912,0,0,1-.519.114.93.93,0,0,1-.521-.114.5.5,0,0,1-.2-.456.51.51,0,0,1,.2-.459,1.25,1.25,0,0,1,1.039,0,.507.507,0,0,1,.2.457.515.515,0,0,1-.2.459" transform="translate(-722.552 -279.032)" fill="#939598"/>
    <path id="Caminho_60" data-name="Caminho 60" d="M810.526,293.268a.816.816,0,0,1-.527-.152.757.757,0,0,1-.229-.613.72.72,0,0,1,.3-.624,1.126,1.126,0,0,1,.622-.14c.163,0,.33.011.512.026v.263c-.156-.013-.349-.023-.5-.023-.418,0-.6.159-.6.5s.165.5.473.5a3.338,3.338,0,0,0,.654-.088v.262a3.668,3.668,0,0,1-.708.092" transform="translate(-758.629 -273.308)" fill="#939598"/>
    <path id="Caminho_61" data-name="Caminho 61" d="M836.948,298.015c-.253,0-.348.09-.367.253h.729c-.009-.176-.112-.253-.362-.253m-.046.948a.7.7,0,0,1-.459-.12.573.573,0,0,1-.174-.452.549.549,0,0,1,.2-.457.8.8,0,0,1,.474-.113.833.833,0,0,1,.469.109.577.577,0,0,1,.19.533h-1.027c.006.166.094.272.4.272a3.909,3.909,0,0,0,.577-.056v.212a4.128,4.128,0,0,1-.652.071" transform="translate(-783.455 -279.004)" fill="#939598"/>
    <path id="Caminho_62" data-name="Caminho 62" d="M863.525,298.937v-.6c0-.2-.1-.268-.281-.268a2.062,2.062,0,0,0-.442.068v.8h-.3v-1.083h.246l.011.069a2.5,2.5,0,0,1,.579-.1.534.534,0,0,1,.371.111.421.421,0,0,1,.118.339v.662Z" transform="translate(-808.027 -279.007)" fill="#939598"/>
    <path id="Caminho_63" data-name="Caminho 63" d="M887.46,294.57a.392.392,0,0,1-.351-.155.56.56,0,0,1-.08-.327v-.406h-.219v-.225h.219l.032-.328h.267v.328h.427v.225h-.427v.347a.522.522,0,0,0,.03.206.193.193,0,0,0,.2.1,1.344,1.344,0,0,0,.216-.021v.217a1.742,1.742,0,0,1-.313.039" transform="translate(-830.801 -274.61)" fill="#939598"/>
    <path id="Caminho_64" data-name="Caminho 64" d="M906.44,298.954v-1.082h.246l.011.069a1.882,1.882,0,0,1,.536-.1h.038v.262h-.1a1.7,1.7,0,0,0-.425.056v.8Z" transform="translate(-849.191 -279.024)" fill="#939598"/>
    <path id="Caminho_65" data-name="Caminho 65" d="M922.444,298.526c-.126-.011-.253-.017-.391-.017-.22,0-.3.045-.3.146s.063.145.233.145a2.189,2.189,0,0,0,.455-.063Zm.063.454-.009-.063a2.6,2.6,0,0,1-.588.095.561.561,0,0,1-.328-.08.308.308,0,0,1-.12-.262.3.3,0,0,1,.183-.293.992.992,0,0,1,.405-.058c.114,0,.266.006.392.015v-.02c0-.169-.112-.225-.416-.225-.118,0-.262.006-.4.019v-.219c.152-.013.323-.021.465-.021a.923.923,0,0,1,.505.1.4.4,0,0,1,.148.371v.641Z" transform="translate(-863.264 -279.051)" fill="#939598"/>
    <path id="Caminho_66" data-name="Caminho 66" d="M947.92,291.1h.3v1.538h-.3Z" transform="translate(-888.05 -272.709)" fill="#939598"/>
  </g>
</svg>
